Description

Poster: http://cdn.piczend.com/image/srk0hmtmtff6hi2ufdwjtuqw1.jpeg
Release date: 2012
Genre: Biography, Drama
Plot: A love story between influential filmmaker Alfred Hitchcock and wife Alma Reville during the filming of 'Psycho' in 1959.
--------------------------------

Runtime: 1 h 38 min
Rating: 7.0/10
Votes: 10,397
Writer(s)/Director(s): John J. McLaughlin, Stephen Rebello/Sacha Gervasi
Actors: Anthony Hopkins, Helen Mirren, Scarlett Johansson, Danny Huston
Trailer: http://www.imdb.com/video/imdb/vi2501551129/

Screenshots:
 
http://cdn.piczend.com/image/bsrev3npv6inflf2vz2chgtag.jpeg
 
http://cdn.piczend.com/image/bwbpgcrotv9njp8fxml8sduhw.jpeg
 
http://cdn.piczend.com/image/xpdgfkhcbx8dfmnbm0b1zhpbi.jpeg
 
http://cdn.piczend.com/image/oumy18lhbsncqfdddhjpvkblm.jpeg


Mediainfo:
General
Complete name : 	Hitchcock (2012) BRRip 528p [Zend]/Hitchcock (2012) BRRip 528p [Zend].mp4
Format : 	MPEG-4
Format profile : 	Base Media
Codec ID : 	isom
File size : 	1.09 GiB
Duration : 	1h 38mn
Overall bit rate mode : 	Variable
Overall bit rate : 	1 580 Kbps
Encoded date : 	UTC 2013-03-04 15:50:32
Tagged date : 	UTC 2013-03-04 15:50:32
Writing application : 	Lavf53.21.1

Video
ID : 	1
Format : 	AVC
Format/Info : 	Advanced Video Codec
Format profile : 	Main@L3.1
Format settings, CABAC : 	Yes
Format settings, ReFrames : 	3 frames
Codec ID : 	avc1
Codec ID/Info : 	Advanced Video Coding
Duration : 	1h 38mn
Bit rate : 	1 500 Kbps
Width : 	1 264 pixels
Height : 	528 pixels
Display aspect ratio : 	2.40:1
Frame rate mode : 	Constant
Frame rate : 	23.976 fps
Color space : 	YUV
Chroma subsampling : 	4:2:0
Bit depth : 	8 bits
Scan type : 	Progressive
Bits/(Pixel*Frame) : 	0.094
Stream size : 	1.03 GiB (94%)
Writing library : 	x264 core 123 r2189 35cf912
Encoding settings : 	cabac=1 / ref=3 / deblock=1:0:0 / analyse=0x1:0x111 / me=hex / subme=7 / psy=1 / psy_rd=1.00:0.00 / mixed_ref=0 / me_range=16 / chroma_me=1 / trellis=1 / 8x8dct=0 / cqm=0 / deadzone=21,11 / fast_pskip=1 / chroma_qp_offset=-2 / threads=6 / sliced_threads=0 / nr=0 / decimate=1 / interlaced=0 / bluray_compat=0 / constrained_intra=0 / bframes=3 / b_pyramid=0 / b_adapt=1 / b_bias=0 / direct=1 / weightb=0 / open_gop=1 / weightp=2 / keyint=250 / keyint_min=23 / scenecut=40 / intra_refresh=0 / rc_lookahead=40 / rc=abr / mbtree=1 / bitrate=1500 / ratetol=1.0 / qcomp=0.60 / qpmin=0 / qpmax=69 / qpstep=4 / ip_ratio=1.25 / aq=1:1.00
Encoded date : 	UTC 2013-03-04 15:50:32
Tagged date : 	UTC 2013-03-04 15:50:32

Audio
ID : 	2
Format : 	AAC
Format/Info : 	Advanced Audio Codec
Format profile : 	HE-AAC / LC
Codec ID : 	40
Duration : 	1h 38mn
Bit rate mode : 	Variable
Bit rate : 	83.8 Kbps
Channel(s) : 	2 channels
Channel positions : 	Front: L R
Sampling rate : 	48.0 KHz / 24.0 KHz
Compression mode : 	Lossy
Delay relative to video : 	42ms
Stream size : 	59.0 MiB (5%)
Language : 	English
Encoded date : 	UTC 2013-03-04 15:50:32
Tagged date : 	UTC 2013-03-04 15:50:32
